<svg viewBox="0 0 512 512" xmlns="http://www.w3.org/2000/svg" version="1.1" x="0px" xml:space="preserve" xmlns:xlink="http://www.w3.org/1999/xlink" y="0px"><polygon points="448 336 182 336 69.5 80 0.008 80 0.008 48 90.5 48 202 304 448 304"></polygon><path d="m288 416c0 26.5-21.5 48-48 48s-48-21.5-48-48 21.5-48 48-48 48 22 48 48z"></path><path d="m448 416c0 26.5-21.5 48-48 48s-48-21.5-48-48 21.5-48 48-48 48 22 48 48z"></path><polygon points="499 144 512 112 160 112 173 144"></polygon><polygon points="211 240 224 272 448 272 461 240"></polygon><polygon points="486 176 186 176 198 208 474 208"></polygon></svg>